<svg id="Layer_1" data-name="Layer 1" xmlns="http://www.w3.org/2000/svg" xmlns:xlink="http://www.w3.org/1999/xlink" viewBox="0 0 200 128.83"><defs><style>.cls-1{fill:url(#linear-gradient);}</style><linearGradient id="linear-gradient" x1="34.07" y1="186.01" x2="181.25" y2="38.83" gradientUnits="userSpaceOnUse"><stop offset="0" stop-color="#fc0a67"/><stop offset="1" stop-color="#fd5e42"/></linearGradient></defs><title>favicon</title><path class="cls-1" d="M27.32,136.55l38.5-68.76,40.65,69.4,1.87,3.2c.51.77,1.27,1.88,2.29,3.14,7,8.76,15.76,12.32,21.38,14.56a63.18,63.18,0,0,0,26.21,4.5c5.81-.29,17.39-.88,28.05-8.8,3.27-2.43,9.72-7.36,12.33-15.79a31.65,31.65,0,0,0,1.31-8.55,37.4,37.4,0,0,0-2.08-13.51,39.74,39.74,0,0,0-10.46-15,49.44,49.44,0,0,0-4.47-3.4c-1-.65-1.93-1.27-3-1.88a66.38,66.38,0,0,0-8-4l-1.25-.51c-6-2.36-13.05-3.58-21-6.19-4.88-1.6-6.85-2.66-8.61-4a14.54,14.54,0,0,1-4.67-5.18,14.26,14.26,0,0,1-.74-10.12,16.63,16.63,0,0,1,6.42-9,17.68,17.68,0,0,1,13.06-2.86A24.23,24.23,0,0,1,173,65.36a18,18,0,0,1,2.29,6.56,23.36,23.36,0,0,1,.44,4.33,7.3,7.3,0,0,0,.09,1,9.3,9.3,0,0,0,3.32,5.34,12.11,12.11,0,0,0,5.78,2.72A12.32,12.32,0,0,0,194,83.72a12.79,12.79,0,0,0,4.58-5.81c1.85-4.09,1.49-7.82,1.22-10.54A30,30,0,0,0,196.18,56a36.64,36.64,0,0,0-7.34-9.55,41.48,41.48,0,0,0-11-7.69,56.43,56.43,0,0,0-54.27,4.5A32.46,32.46,0,0,0,111.1,61.61a31.87,31.87,0,0,0-.36,11.8c2,13.36,11.63,21.4,13.2,22.67a38.2,38.2,0,0,0,11.55,6.56c6,2.28,10.87,4,14.12,5.06,11.16,3.74,16.48,4.91,20.9,10.11a22.58,22.58,0,0,1,3.3,5.25,14.43,14.43,0,0,1,.18,9.56,14,14,0,0,1-5,6.74,30.49,30.49,0,0,1-30.07-.75,40.14,40.14,0,0,1-11.55-8.24,41.22,41.22,0,0,1-7.51-10.68L74.8,42.13a10,10,0,0,0-9.14-5,10.54,10.54,0,0,0-8.09,5L1.28,142.36a11,11,0,0,0-1.1,7.12,10.85,10.85,0,0,0,4,6.55,11.34,11.34,0,0,0,3.13,1.54,11.53,11.53,0,0,0,3.47.52c2.65,0,32.31.1,73,.15a11.16,11.16,0,0,0,7.82-3.33,10.85,10.85,0,0,0,2.86-6.16,10.91,10.91,0,0,0-10-12.08Z" transform="translate(0 -33.83)"/></svg>